HIERARCHY
ROOT Hips
{
  OFFSET 0 0 0
  CHANNELS 6 Xposition Yposition Zposition Zrotation Yrotation Xrotation
  JOINT LeftThigh
  {
    OFFSET 8.409438 0 -5.917753
    CHANNELS 3 Zrotation Yrotation Xrotation
    JOINT LeftLeg
    {
      OFFSET 0 0 -42.358652
      CHANNELS 3 Zrotation Yrotation Xrotation
      JOINT LeftFoot
      {
        OFFSET 0 0 -39.357303
        CHANNELS 3 Zrotation Yrotation Xrotation
      }
    }
  }
  JOINT RightThigh
  {
    OFFSET -8.409438 0 -5.917753
    CHANNELS 3 Zrotation Yrotation Xrotation
    JOINT RightLeg
    {
      OFFSET 0 0 -42.358652
      CHANNELS 3 Zrotation Yrotation Xrotation
      JOINT RightFoot
      {
        OFFSET 0 0 -39.357303
        CHANNELS 3 Zrotation Yrotation Xrotation
      }
    }
  }
  JOINT SpineLow
  {
    OFFSET 0 0 4.719101
    CHANNELS 3 Zrotation Yrotation Xrotation
    JOINT SpineMid
    {
      OFFSET 0 0 12.899191
      CHANNELS 3 Zrotation Yrotation Xrotation
      JOINT Chest
      {
        OFFSET 0 0 12.899191
        CHANNELS 3 Zrotation Yrotation Xrotation
        JOINT LeftShoulder
        {
          OFFSET 7.550562 1.41573 9.438202
          CHANNELS 3 Zrotation Yrotation Xrotation
          JOINT LeftArm
          {
            OFFSET 9.155056 0 4.247191
            CHANNELS 3 Zrotation Yrotation Xrotation
            JOINT LeftForearm
            {
              OFFSET 0 0 25.771955
              CHANNELS 3 Zrotation Yrotation Xrotation
              JOINT LeftHand
              {
                OFFSET 0 0 25.197169
                CHANNELS 3 Zrotation Yrotation Xrotation
              }
            }
          }
        }
        JOINT RightShoulder
        {
          OFFSET -7.550562 1.41573 9.438202
          CHANNELS 3 Zrotation Yrotation Xrotation
          JOINT RightArm
          {
            OFFSET -9.155056 0 4.247191
            CHANNELS 3 Zrotation Yrotation Xrotation
            JOINT RightForearm
            {
              OFFSET 0 0 -25.771955
              CHANNELS 3 Zrotation Yrotation Xrotation
              JOINT RightHand
              {
                OFFSET 0 0 -25.197169
                CHANNELS 3 Zrotation Yrotation Xrotation
              }
            }
          }
        }
        JOINT Neck
        {
          OFFSET 0 0 15.101124
          CHANNELS 3 Zrotation Yrotation Xrotation
          JOINT Head
          {
            OFFSET 0 0 11.325843
            CHANNELS 3 Zrotation Yrotation Xrotation
            End Site
            {
              OFFSET 0 0 14.157303
            }
          }
        }
      }
    }
  }
}
MOTION
Frames: 11
Frame Time: 0.0
0.0  93.25843  0.0  -8.368568  -23.529001  -85.921627  25.374143  -18.902434  -0.456038  1.088679  -0.972329  10.775168  9.164893  2.539412  3.041818  8.161712  -2.178218  -9.430219  -4.813833  7.167347  8.659391  1.566691  2.136046  0.306613  -2.204906  -2.19117  -0.565082  -5.990549  -6.034882  -1.346441  -5.990549  -6.034882  -1.346441  -14.81352  -13.728584  10.100536  -32.740481  61.447954  9.022969  6.012257  -51.650913  78.411688  118.098826  32.149475  30.141249  -16.176006  -1.461823  20.272359  62.291435  12.076594  62.101535  -25.088526  -0.974267  -110.856159  68.576058  -11.598795  -17.118377  12.609469  2.473081  7.332702  9.42758  2.007468  5.450374  
0.0  93.25843  0.0  -8.408963  -17.169882  -88.211389  20.728223  -20.298182  1.342019  -0.412332  -0.943351  9.941283  9.099306  2.603122  2.975231  5.039755  -2.553817  -7.216424  -6.162759  7.470563  9.187043  1.453632  2.289372  0.351227  -3.307028  -2.281721  -0.383831  -9.027915  -6.275824  -0.73655  -9.027914  -6.275824  -0.73655  -12.866366  -15.833213  10.219859  -26.000507  60.136261  15.654395  12.971631  -49.375994  70.690066  116.165981  31.372029  32.565877  -16.349945  -0.304604  20.245773  59.204794  11.447682  61.935414  -24.17019  -0.731161  -111.421491  69.88984  -11.091457  -16.686245  12.867775  2.770791  7.578723  9.616351  2.239252  5.627518  
0.0  93.25843  0.0  -8.787456  -14.434347  -88.510706  19.279619  -21.019811  1.574481  -0.740437  -0.925514  9.308798  8.864736  2.62395  2.874707  5.139619  -3.025783  -6.905953  -7.176281  7.88931  9.590602  1.342769  2.342089  0.424208  -3.931747  -2.546445  -0.422889  -10.739182  -7.007895  -0.740424  -10.739182  -7.007895  -0.740424  -9.573644  -16.779168  10.409399  -21.255867  58.09348  20.754294  14.890072  -46.560977  67.529566  114.871167  29.798338  34.298661  -15.929779  1.308228  20.623521  58.392409  10.034187  61.218433  -25.219634  0.391315  -111.147332  71.035694  -11.105599  -16.545324  13.628154  3.572098  7.860832  10.173842  2.856582  5.817402  
0.0  93.25843  0.0  -9.030454  -13.299638  -88.637737  18.934465  -21.222176  1.824702  -0.651969  -1.124236  8.863859  8.39308  2.64479  2.704657  5.786187  -3.264149  -6.79031  -7.337626  8.140332  9.982271  1.074926  2.307066  0.476353  -3.970359  -2.740246  -0.404483  -10.849673  -7.533241  -0.654114  -10.849673  -7.533241  -0.654114  -8.478401  -17.782687  9.363199  -16.637389  57.311283  26.314559  13.708129  -45.180858  67.029949  114.36169  29.198157  36.139668  -17.25408  1.823492  20.623294  59.12143  8.805623  60.605685  -26.420431  1.629184  -110.131027  69.239743  -11.335325  -15.732842  13.224594  4.388857  7.639797  9.860501  3.45945  5.635039  
0.0  93.25843  0.0  -8.827792  -12.097008  -87.767638  18.456048  -20.417942  1.061782  -0.63517  -1.46023  8.599809  8.194987  2.637241  2.695076  5.233728  -2.790387  -7.706109  -6.973078  8.107732  10.305642  0.844239  2.288912  0.516036  -3.857189  -2.766583  -0.564007  -10.52101  -7.629737  -1.099511  -10.52101  -7.629737  -1.099511  -8.08133  -18.302977  9.3821  -15.813266  56.534901  27.44914  11.356485  -46.201765  68.134444  113.53822  28.60591  36.398336  -18.924096  1.152709  20.66155  60.994684  7.325496  59.851829  -25.88155  1.26209  -108.768415  66.226216  -11.235865  -11.774046  12.365469  4.644235  7.331109  9.214807  3.633808  5.403793  
0.0  93.25843  0.0  -8.340085  -11.492441  -87.315621  17.924009  -19.42967  0.637016  -0.589738  -1.682173  8.618267  8.202423  2.583934  2.706567  4.279944  -1.984435  -8.257967  -6.483801  7.959555  10.55047  0.882808  2.332828  0.514762  -3.64226  -2.681189  -0.713279  -9.913828  -7.416603  -1.545964  -9.913828  -7.416603  -1.545964  -9.069858  -18.41626  9.984779  -17.796504  55.920336  25.054125  9.06887  -47.899176  70.734735  113.339853  28.36551  35.912995  -20.298789  0.32075  21.047103  63.326629  5.694788  58.915788  -24.323162  -2.163456  -108.184003  66.990263  -12.05123  -7.284426  11.396539  4.65889  7.322498  8.488233  3.63275  5.404029  
0.0  93.25843  0.0  -7.527304  -11.063745  -87.284287  17.154139  -18.402771  0.539149  -0.402458  -1.666664  9.016612  8.376306  2.549202  2.818183  3.027561  -0.943507  -8.522043  -6.194558  7.92139  10.7373  1.16871  2.381435  0.452353  -3.532067  -2.553512  -0.811015  -9.601295  -7.080471  -1.844294  -9.601295  -7.080471  -1.844293  -9.97569  -17.990309  10.456956  -21.312229  55.632958  21.377305  7.085141  -49.715212  73.605526  113.503283  27.861827  35.964278  -20.72075  -0.47416  21.365595  64.614573  5.710105  58.434992  -23.690854  -5.894155  -107.750933  69.77862  -13.226875  -6.883001  10.811825  4.644142  7.585094  8.048168  3.619217  5.60547  
0.0  93.25843  0.0  -7.208701  -11.147223  -86.044224  16.709442  -17.752675  -1.06224  0.331605  -1.417767  9.935043  8.43613  2.588028  2.882873  2.331856  -0.466178  -9.894715  -6.183928  8.042334  10.859003  1.456186  2.379832  0.414317  -3.405791  -2.555  -1.091883  -9.224394  -7.120434  -2.626599  -9.224394  -7.120434  -2.626599  -10.2021  -17.518678  10.592005  -26.035011  55.407054  17.493552  5.482162  -51.394824  76.261435  113.0029  27.135744  36.704948  -20.275476  -0.997593  21.583705  64.330521  7.527666  58.47607  -23.718292  -5.585332  -107.234219  70.180495  -13.361271  -7.093246  10.488389  4.535412  8.213674  7.802808  3.544437  6.081191  
0.0  93.25843  0.0  -7.059621  -11.512648  -86.122134  16.748499  -17.581813  -0.98849  0.442022  -1.261404  10.334893  8.364936  2.645575  2.940014  2.062895  -0.354895  -9.853161  -6.28593  8.231325  10.927577  1.514686  2.382313  0.363926  -3.223949  -2.486187  -1.143371  -8.721673  -6.932915  -2.796289  -8.721673  -6.932915  -2.796289  -10.317167  -17.489653  10.585507  -30.750054  55.254136  14.241875  4.194594  -52.977904  78.38285  112.028569  26.77777  37.131485  -19.959143  -1.468398  21.637617  64.357991  9.01568  58.642694  -24.99585  -3.076733  -106.716612  69.611162  -13.271033  -7.922922  9.825802  4.114867  8.737428  7.309055  3.228339  6.485998  
0.0  93.25843  0.0  -7.167971  -12.233661  -86.262698  17.134469  -17.625266  -0.658417  0.394221  -1.245002  10.601143  9.226861  2.554486  3.562715  2.329186  -0.588037  -9.673484  -6.493393  8.406953  11.022032  1.309206  2.40639  0.342815  -2.959692  -2.434885  -1.185803  -7.993958  -6.787709  -2.946661  -7.993958  -6.787709  -2.94666  -10.560409  -17.403416  10.935477  -33.801124  54.838727  12.487926  3.571101  -52.620324  79.464459  112.389153  26.949389  36.762853  -19.36296  -1.585123  21.782058  64.822897  9.814238  58.483852  -26.544182  -0.665066  -106.392652  69.059914  -13.200034  -8.95375  8.942311  3.62931  9.233839  6.651404  2.858552  6.871656  
0.0  93.25843  0.0  -7.220956  -12.964797  -86.403338  17.298142  -17.800164  -0.300412  0.237534  -1.034506  10.919487  9.07391  2.661334  3.520798  2.357328  -0.880043  -9.515907  -6.686474  8.577153  11.14377  1.105515  2.452239  0.339293  -2.705942  -2.377387  -1.269726  -7.291454  -6.629373  -3.209047  -7.291454  -6.629372  -3.209047  -11.544509  -17.098147  11.378076  -34.776403  54.46374  12.039014  3.175227  -51.197267  79.757994  113.364022  26.74725  36.167451  -18.960183  -1.669947  22.148545  66.087295  10.119475  58.715819  -27.699833  0.41858  -106.431149  69.276538  -12.949362  -9.226513  8.040363  3.317618  9.7553  5.977393  2.617857  7.272249  
